<?xml version="1.0" encoding="UTF-8"?>
<svg width="196" height="196" viewBox="0 0 270 270" fill="none" xmlns="http://www.w3.org/2000/svg">
<circle cx="135" cy="135" r="98" transform="rotate(30.6589 135 135)" fill="#03A8F2"/>
<rect x="123.44" y="89.7852" width="65" height="111" rx="10" transform="rotate(30.6589 123.44 89.7852)" fill="white"/>
<circle cx="138.394" cy="128.293" r="17.5" transform="rotate(30.6589 138.394 128.293)" fill="#03A8F2"/>
<path d="M184.666 91.7399C183.542 93.635 182.278 95.1558 180.872 96.3022C179.487 97.443 178.087 98.2115 176.671 98.6076C175.149 99.0311 173.661 99.1207 172.207 98.8766C170.767 98.6404 169.328 98.096 167.889 97.2435C166.156 96.2157 164.823 94.8173 163.892 93.0482C162.982 91.2738 162.542 89.1967 162.572 86.8169C160.344 88.0025 158.272 88.6178 156.356 88.6628C154.448 88.6944 152.533 88.1405 150.611 87.0012C147.815 85.3439 146.174 82.9811 145.686 79.9128C145.211 76.8524 145.93 73.7093 147.842 70.4835C149.954 66.9216 152.525 64.6677 155.556 63.7217C158.6 62.7837 161.621 63.2031 164.619 64.9798C166.379 66.0236 167.712 67.422 168.616 69.1751C169.534 70.9361 169.981 73.0172 169.956 75.4184C172.12 74.2492 174.178 73.6434 176.128 73.6008C178.092 73.5663 180.015 74.1067 181.897 75.2222C184.693 76.8794 186.328 79.2383 186.802 82.2986C187.29 85.367 186.578 88.5141 184.666 91.7399ZM179.444 88.6445C180.44 86.9644 180.847 85.4348 180.666 84.0557C180.498 82.6846 179.789 81.6285 178.539 80.8875C177.625 80.3457 176.756 80.0489 175.933 79.997C175.11 79.9451 174.23 80.1132 173.291 80.5014C172.31 80.9006 171.332 81.4015 170.357 82.0043C169.39 82.5936 168.441 83.2297 167.509 83.9126C167.454 85.6601 167.747 87.1873 168.39 88.4943C169.032 89.8012 169.904 90.7814 171.006 91.4347C172.592 92.3749 174.116 92.6066 175.58 92.1299C177.056 91.6611 178.345 90.4993 179.444 88.6445ZM164.999 78.3107C165.035 76.5339 164.735 75.0027 164.098 73.7171C163.47 72.4181 162.604 71.442 161.502 70.7886C159.889 69.8325 158.339 69.613 156.852 70.13C155.386 70.6416 154.124 71.7912 153.064 73.5789C152.132 75.1515 151.714 76.6382 151.809 78.0392C151.919 79.4482 152.639 80.547 153.969 81.3358C155.273 82.1087 156.458 82.3931 157.523 82.1891C158.61 81.9797 159.82 81.5164 161.154 80.7992C161.963 80.3527 162.611 79.9647 163.097 79.6352C163.596 79.3137 164.23 78.8722 164.999 78.3107Z" fill="white"/>
<circle cx="106.114" cy="153.333" r="7.5" transform="rotate(30.6589 106.114 153.333)" fill="#03A8F2"/>
<circle cx="92.8558" cy="175.699" r="7.5" transform="rotate(30.6589 92.8558 175.699)" fill="#03A8F2"/>
<circle cx="118.662" cy="190.996" r="7.5" transform="rotate(30.6589 118.662 190.996)" fill="#03A8F2"/>
<circle cx="131.92" cy="168.631" r="7.5" transform="rotate(30.6589 131.92 168.631)" fill="#03A8F2"/>
<circle cx="138.394" cy="128.293" r="12.5" transform="rotate(30.6589 138.394 128.293)" fill="white"/>
</svg>
